<svg xmlns="http://www.w3.org/2000/svg" viewBox="0 0 120 70" width="120" height="70">
  <rect width="120" height="70" rx="8" fill="#0b0d12"/>
  <!-- Model S Silhouette -->
  <path d="M 12 45 C 16 38 28 36 38 32 C 48 26 62 25 78 26 C 92 28 102 36 108 42 C 110 44 110 48 106 48 L 14 48 C 11 48 10 46 12 45 Z" fill="#2d323d" stroke="#525a6c" stroke-width="1"/>
  <!-- Greenhouse / Glass roofline -->
  <path d="M 40 32 C 48 27 60 26 74 27 C 82 28 88 32 94 36 L 42 36 Z" fill="#0f172a"/>
  <!-- Headlight glow -->
  <circle cx="16" cy="44" r="2" fill="#ffffff"/>
  <!-- Wheels -->
  <circle cx="28" cy="48" r="7" fill="#181a20" stroke="#71717a" stroke-width="2"/>
  <circle cx="92" cy="48" r="7" fill="#181a20" stroke="#71717a" stroke-width="2"/>
  <!-- Model text -->
  <text x="60" y="62" fill="#ffffff" font-family="sans-serif" font-size="7" font-weight="600" text-anchor="middle" letter-spacing="1">MODEL S</text>
</svg>
